<?xml version="1.0" encoding="UTF-8" standalone="no"?>
<svg
   xmlns:dc="http://purl.org/dc/elements/1.1/"
   xmlns:cc="http://creativecommons.org/ns#"
   xmlns:rdf="http://www.w3.org/1999/02/22-rdf-syntax-ns#"
   xmlns:svg="http://www.w3.org/2000/svg"
   xmlns="http://www.w3.org/2000/svg"
   xmlns:sodipodi="http://sodipodi.sourceforge.net/DTD/sodipodi-0.dtd"
   xmlns:inkscape="http://www.inkscape.org/namespaces/inkscape"
   version="1.1"
   viewBox="0 0 512 512"
   enable-background="new 0 0 512 512"
   id="svg2"
   inkscape:version="0.91 r13725"
   sodipodi:docname="cogwheel.svg">
  <metadata
     id="metadata18">
    <rdf:RDF>
      <cc:Work
         rdf:about="">
        <dc:format>image/svg+xml</dc:format>
        <dc:type
           rdf:resource="http://purl.org/dc/dcmitype/StillImage" />
      </cc:Work>
    </rdf:RDF>
  </metadata>
  <defs
     id="defs16" />
  <sodipodi:namedview
     pagecolor="#ffffff"
     bordercolor="#666666"
     borderopacity="1"
     objecttolerance="10"
     gridtolerance="10"
     guidetolerance="10"
     inkscape:pageopacity="0"
     inkscape:pageshadow="2"
     inkscape:window-width="640"
     inkscape:window-height="480"
     id="namedview14"
     showgrid="false"
     inkscape:zoom="0.59597778"
     inkscape:cx="256"
     inkscape:cy="256"
     inkscape:window-x="75"
     inkscape:window-y="34"
     inkscape:window-maximized="0"
     inkscape:current-layer="svg2" />
  <g
     id="g4"
     style="fill:#ffffff">
    <line
       fill="none"
       y1="501"
       x1="303.1"
       y2="501"
       x2="302.1"
       id="line6"
       style="fill:#ffffff" />
    <g
       id="g8"
       style="fill:#ffffff">
      <path
         d="m501,300.8v-91.7h-45.3c-5.3-22.4-14.3-43.3-26.4-62.1l32.9-32.7-64.9-64.6-33.4,33.3c-18.8-11.5-39.6-19.9-61.8-24.8v-47.2h-92.1v48.3c-22,5.4-42.6,14.4-61.1,26.4l-34.2-34-64.9,64.6 35.3,35.2c-2.8,4.6-5.3,9.2-7.7,14-7.5,14.3-13.2,30-17.1,45.7h-49.3v91.7h50.3c1.5,6 3.3,11.9 5.3,17.8 0.1,0.4 0.3,0.8 0.4,1.2 0,0.1 0.1,0.2 0.1,0.4 4.9,14.2 11.3,27.7 19.1,40.2l-35.5,35.3 64.9,64.6 35.1-34.9c18.3,11.5 38.6,20.2 60.2,25.4v48.1h91.1v-47.1c22.7-5 44-13.7 63.1-25.6l32.2,32 64.9-64.6-32.1-31.9c12-19.1 20.9-40.3 26-62.9h44.9zm-94.8,64l29.9,29.8-36.6,36.5-29.5-29.4c-24.7,18.9-54.4,31.7-86.7,36v42.4h-51.3v-42.7c-31.5-4.6-60.4-17.2-84.6-35.7l-31.6,31.5-36.6-36.5 32.4-31.3c-17.9-24-30-52.4-34.4-83.4h-45.3v-51.1h44l1.5-3.6c4.7-29.7 16.5-57.1 33.6-80.3l-32-31.9 36.6-36.5 31,31.9c24-18.5 52.8-31.2 84.1-36v-42.7h51.3v42.3c32,4.1 61.3,16.4 86,34.8l30.3-30.1 35.6,36.5-29.6,29.5c18.2,23.8 30.7,52.2 35.5,83.1h45.4v51.1h-44.7c-3.9,31.8-16.1,61.1-34.3,85.8z"
         id="path10"
         style="fill:#ffffff" />
      <path
         d="m257,143.4c-61.8,0-113.1,50-113.1,112.6s51.4,112.6 113.1,112.6 113.1-51.1 113.1-112.6-51.3-112.6-113.1-112.6zm0,204.3c-51.3,0-92.1-40.7-92.1-91.7 0-51.1 41.9-91.7 92.1-91.7s92.1,40.7 92.1,91.7c0.1,51.1-41.8,91.7-92.1,91.7z"
         id="path12"
         style="fill:#ffffff" />
    </g>
  </g>
</svg>
