<?xml version="1.0" encoding="UTF-8" standalone="no"?>
<!-- Generator: Adobe Illustrator 19.0.0, SVG Export Plug-In . SVG Version: 6.00 Build 0)  -->

<svg
   xmlns:dc="http://purl.org/dc/elements/1.1/"
   xmlns:cc="http://creativecommons.org/ns#"
   xmlns:rdf="http://www.w3.org/1999/02/22-rdf-syntax-ns#"
   xmlns:svg="http://www.w3.org/2000/svg"
   xmlns="http://www.w3.org/2000/svg"
   xmlns:sodipodi="http://sodipodi.sourceforge.net/DTD/sodipodi-0.dtd"
   xmlns:inkscape="http://www.inkscape.org/namespaces/inkscape"
   version="1.1"
   id="Layer_1"
   x="0px"
   y="0px"
   viewBox="0 0 368 368"
   style="enable-background:new 0 0 368 368;"
   xml:space="preserve"
   inkscape:version="0.91 r13725"
   sodipodi:docname="scroll-arrow.svg"><metadata
     id="metadata49"><rdf:RDF><cc:Work
         rdf:about=""><dc:format>image/svg+xml</dc:format><dc:type
           rdf:resource="http://purl.org/dc/dcmitype/StillImage" /></cc:Work></rdf:RDF></metadata><defs
     id="defs47" /><sodipodi:namedview
     pagecolor="#ffffff"
     bordercolor="#666666"
     borderopacity="1"
     objecttolerance="10"
     gridtolerance="10"
     guidetolerance="10"
     inkscape:pageopacity="0"
     inkscape:pageshadow="2"
     inkscape:window-width="1301"
     inkscape:window-height="744"
     id="namedview45"
     showgrid="false"
     inkscape:zoom="1.4905316"
     inkscape:cx="184"
     inkscape:cy="184"
     inkscape:window-x="65"
     inkscape:window-y="24"
     inkscape:window-maximized="1"
     inkscape:current-layer="g7" /><g
     style="fill:#300011;fill-opacity:1"
     id="g5"><g
       style="fill:#300011;fill-opacity:1"
       id="g7"><path
         inkscape:connector-curvature="0"
         style="fill:#300011;fill-opacity:1"
         id="path9"
         d="m 184,111.6 c 4.4,0 8,-3.6 8,-8 L 192,92 c 0,-4.4 -3.6,-8 -8,-8 -4.4,0 -8,3.6 -8,8 l 0,11.6 c 0,4.4 3.6,8 8,8 z" /><path
         inkscape:connector-curvature="0"
         style="fill:#300011;fill-opacity:1"
         id="path11"
         d="m 249.2,211.6 -57.2,57.2 0,-129.2 c 0,-4.4 -3.6,-8 -8,-8 -4.4,0 -8,3.6 -8,8 l 0,129.2 -57.2,-57.2 c -3.2,-3.2 -8,-3.2 -11.2,0 -3.2,3.2 -3.2,8 0,11.2 l 70.8,70.8 c 1.6,1.6 3.6,2.4 5.6,2.4 2,0 4,-0.8 5.6,-2.4 l 70.8,-70.8 c 3.2,-3.2 3.2,-8 0,-11.2 -3.2,-3.2 -8,-3.2 -11.2,0 z" /><path
         inkscape:connector-curvature="0"
         style="fill:#300011;fill-opacity:1"
         id="path13"
         d="M 184,0 C 82.4,0 0,82.4 0,184 0,285.6 82.4,368 184,368 285.6,368 368,285.6 368,184 368,82.4 285.6,0 184,0 Z m 0,352 C 91.2,352 16,276.8 16,184 16,91.2 91.2,16 184,16 c 92.8,0 168,75.2 168,168 0,92.8 -75.2,168 -168,168 z" /></g></g><g
     id="g15" /><g
     id="g17" /><g
     id="g19" /><g
     id="g21" /><g
     id="g23" /><g
     id="g25" /><g
     id="g27" /><g
     id="g29" /><g
     id="g31" /><g
     id="g33" /><g
     id="g35" /><g
     id="g37" /><g
     id="g39" /><g
     id="g41" /><g
     id="g43" /></svg>